<svg width="32" height="32" viewBox="0 0 32 32" fill="none" xmlns="http://www.w3.org/2000/svg">
<path d="M2.18184 28.0063H7.27281V15.6425L0 10.1879V25.8245C0 27.0318 0.978193 28.0063 2.18184 28.0063Z" fill="black"/>
<path d="M24.7271 28.0063H29.8181C31.0254 28.0063 31.9999 27.0281 31.9999 25.8245V10.1879L24.7271 15.6425" fill="black"/>
<path d="M24.7271 6.18803V15.6427L31.9999 10.1881V7.27896C31.9999 4.58074 28.9199 3.04254 26.7635 4.66074" fill="black"/>
<path d="M7.27319 15.6425V6.18787L16.0006 12.7334L24.7279 6.18787V15.6425L16.0006 22.1881" fill="black"/>
<path d="M0 7.27896V10.1881L7.27281 15.6427V6.18803L5.23643 4.66074C3.0764 3.04254 0 4.58074 0 7.27896" fill="black"/>
</svg>
