<svg width="32" height="32" viewBox="0 0 32 32" fill="none" xmlns="http://www.w3.org/2000/svg">
<g clip-path="url(#clip0_34_158)">
<path fill-rule="evenodd" clip-rule="evenodd" d="M16.6758 32H15.3434C8.1088 32 4.4928 32 2.24639 29.7536C0 27.5072 0 23.8913 0 16.6758V15.3242C0 8.10753 0 4.49281 2.24639 2.24641C4.4928 6.4373e-06 8.1088 0 15.3434 0H16.6758C23.9091 0 27.5456 6.4373e-06 29.7728 2.24641C32 4.49281 32 8.11008 32 15.3242V16.6758V16.8579C32.0002 23.9522 32.0002 27.5262 29.7728 29.7536C27.5264 32 23.9091 32 16.6758 32ZM5.40771 9.74707C5.57796 18.0658 9.95684 23.0719 17.1722 23.0719H17.5908V18.3128C20.2174 18.5791 22.1783 20.54 22.9783 23.0719H26.7658C25.738 19.2844 23.073 17.1903 21.4167 16.3903C23.073 15.4008 25.4141 13.0021 25.9658 9.74707H22.5213C21.7969 12.3928 19.6464 14.7916 17.5908 15.0194V9.74707H14.0874V18.9797C11.9562 18.4511 9.17604 15.8578 9.06212 9.74707H5.40771Z" fill="black"/>
</g>
<defs>
<clipPath id="clip0_34_158">
<rect width="32" height="32" fill="white"/>
</clipPath>
</defs>
</svg>
