<svg width="32" height="32" viewBox="0 0 32 32" fill="none" xmlns="http://www.w3.org/2000/svg">
<path d="M0 32L2.18944 23.7827C0.838399 21.3773 0.128485 18.6507 0.129783 15.8547C0.133677 7.11333 7.05761 0 15.5649 0C19.6933 0.00133333 23.5686 1.65333 26.4835 4.65067C29.3972 7.648 31.0013 11.632 31 15.8693C30.9961 24.612 24.0722 31.7253 15.5649 31.7253C12.9822 31.724 10.4372 31.0587 8.18283 29.7947L0 32ZM8.56179 26.924C10.737 28.2507 12.8135 29.0453 15.5597 29.0467C22.6303 29.0467 28.3901 23.1347 28.394 15.8667C28.3965 8.584 22.664 2.68 15.5701 2.67733C8.49431 2.67733 2.73842 8.58933 2.73583 15.856C2.73453 18.8227 3.58072 21.044 5.00184 23.368L3.70531 28.232L8.56179 26.924ZM23.3402 19.6387C23.2442 19.4733 22.9872 19.3747 22.6004 19.176C22.215 18.9773 20.3188 18.0187 19.9645 17.8867C19.6115 17.7547 19.3546 17.688 19.0963 18.0853C18.8393 18.4813 18.0996 19.3747 17.875 19.6387C17.6505 19.9027 17.4247 19.936 17.0392 19.7373C16.6538 19.5387 15.4104 19.1213 13.9374 17.7707C12.7914 16.72 12.0166 15.4227 11.7921 15.0253C11.5676 14.6293 11.7687 14.4147 11.9608 14.2173C12.1347 14.04 12.3463 13.7547 12.5396 13.5227C12.7356 13.2933 12.7992 13.128 12.929 12.8627C13.0575 12.5987 12.9939 12.3667 12.8965 12.168C12.7992 11.9707 12.0283 10.02 11.7077 9.22667C11.3937 8.45467 11.0757 8.55867 10.8395 8.54667L10.0997 8.53333C9.84275 8.53333 9.42485 8.632 9.07184 9.02933C8.71883 9.42667 7.7221 10.384 7.7221 12.3347C7.7221 14.2853 9.10429 16.1693 9.29637 16.4333C9.48974 16.6973 12.0153 20.7 15.8842 22.416C16.8043 22.824 17.5233 23.068 18.0827 23.2507C19.0067 23.552 19.8477 23.5093 20.5122 23.408C21.2533 23.2947 22.7938 22.4493 23.1157 21.524C23.4375 20.5973 23.4375 19.804 23.3402 19.6387Z" fill="black"/>
</svg>
