<svg width="286" height="277" viewBox="0 0 286 277" fill="none" xmlns="http://www.w3.org/2000/svg">
<path d="M106.5 14.4077L130.575 79.4705L131.373 81.6267L133.529 82.4246L198.592 106.5L133.529 130.575L131.373 131.373L130.575 133.529L106.5 198.592L82.4246 133.529L81.6267 131.373L79.4705 130.575L14.4077 106.5L79.4705 82.4246L81.6267 81.6267L82.4246 79.4705L106.5 14.4077Z" stroke="#FF5C00" stroke-width="10"/>
<path d="M224 167.408L236.056 199.989L236.854 202.146L239.01 202.944L271.592 215L239.01 227.056L236.854 227.854L236.056 230.01L224 262.592L211.944 230.01L211.146 227.854L208.99 227.056L176.408 215L208.99 202.944L211.146 202.146L211.944 199.989L224 167.408Z" stroke="#FF5C00" stroke-width="10"/>
</svg>
