<svg width="171" height="171" viewBox="0 0 171 171" fill="none" xmlns="http://www.w3.org/2000/svg">
<path d="M167.57 3H3V167.57H167.57V3Z" stroke="black" stroke-width="5" stroke-miterlimit="10"/>
<path d="M85.1602 24.12C50.6802 24.19 22.6601 52.41 22.8301 86.9C22.9701 114.76 41.3702 138.31 66.6702 146.2C68.0902 146.64 69.53 145.57 69.51 144.08C69.45 140.6 69.4001 137.12 69.3401 133.64C69.3401 132.77 68.63 132.11 67.76 132.17C66.25 132.35 64.74 132.54 63.23 132.72C59.32 133.17 56.16 132.56 54.51 131.82C54.29 131.72 54.0701 131.62 53.8601 131.51C52.7901 130.96 51.8202 130.25 50.9302 129.44C50.8202 129.34 50.7001 129.23 50.5801 129.13C49.8501 128.5 48.9202 127.52 48.1502 126.12C47.7002 125.3 47.4002 124.51 47.2002 123.82C46.8602 122.64 46.3001 121.54 45.5601 120.57C45.2801 120.19 45 119.81 44.74 119.41C43.75 117.87 42.4201 116.57 40.8601 115.62L40.6001 115.46C39.9201 115.05 39.3201 114.53 38.8401 113.9C38.3101 113.21 38.0801 112.58 38.2901 112.19C38.5601 111.69 39.4801 111.72 41.3001 111.78C42.6401 111.82 43.5001 111.85 44.5301 112.26C45.3301 112.58 45.8702 113.02 46.9202 113.9C48.3702 115.11 49.6501 116.18 50.8401 117.94C51.8201 119.39 51.6101 119.63 52.5401 120.74C53.5901 121.99 54.6902 122.68 55.3902 123.1C57.5302 124.4 59.47 124.76 59.97 124.85C61.91 125.18 63.3702 124.94 65.1702 124.65C67.4502 124.28 68.6 124.1 69.24 123.43C70.61 122.01 69.5602 120.49 70.9502 117.97C72.4802 115.19 73.3601 115.47 73.0801 114.86C72.8501 114.37 71.8301 114.55 70.3001 114.46C69.0901 114.39 67.8901 113.8 65.3301 113.32C64.2701 113.12 60.4901 112.34 56.7801 110.06C56.1401 109.67 53.93 108.27 51.73 105.82C51.73 105.82 49.7 103.56 47.21 98.98C47.19 98.94 47.1702 98.9 47.1702 98.9C47.1502 98.87 47.1402 98.83 47.1302 98.8C46.1002 96.14 44.9601 92.33 44.5601 87.65C44.1701 83.05 44.6402 79.17 45.1802 76.41C45.5502 74.71 46.3701 72.07 48.3101 69.4C49.1401 68.25 50.0201 67.33 50.8201 66.61C51.1701 66.3 51.3002 65.81 51.1502 65.37C50.5702 63.61 49.9802 61.14 49.9402 58.17C49.9002 55.08 50.4501 52.5 51.0301 50.65C51.2401 49.97 51.8801 49.53 52.5901 49.56C54.5401 49.65 57 49.98 59.72 50.86C64.14 52.3 67.2802 54.59 69.1302 56.19C69.2602 56.3 69.4401 56.34 69.6101 56.29C73.4601 55.07 79.2301 53.74 86.2901 53.93C92.0201 54.09 96.77 55.2 100.21 56.29C100.37 56.34 100.54 56.3 100.67 56.19C102.34 54.63 105.3 52.29 109.6 50.84C112.23 49.95 114.62 49.63 116.49 49.56C117.39 49.52 117.83 50.48 118.06 50.74C118.12 50.8 118.18 50.87 118.24 50.96C119.68 52.85 119.62 56.87 119.62 56.87C119.56 59.27 119.52 60.71 119.04 62.67C118.65 64.26 118.12 65.57 118.7 67C119.02 67.78 119.53 68.24 119.8 68.5C123.44 72.02 124.9 79.38 125.16 83.55C125.16 83.58 125.16 83.59 125.16 83.59C125.41 86.27 125.8 94.23 120.76 101.84C117.38 106.94 113.04 109.66 111.31 110.64C108.9 112.01 106.24 113.52 102.43 113.98C99.6202 114.32 96.9302 114.01 96.6502 114.96C96.4902 115.51 97.3602 115.96 98.4402 117.65C99.1302 118.73 99.4502 119.59 99.8902 120.79C100.55 122.59 100.99 125.06 100.84 134.42C100.8 136.95 100.76 138.21 100.72 139.49C100.67 141.17 100.61 142.74 100.54 144.19C100.48 145.7 101.92 146.82 103.36 146.38C129.04 138.63 147.74 114.79 147.74 86.59C147.74 52.06 119.72 24.08 85.1702 24.14L85.1602 24.12Z" fill="black"/>
</svg>
