<svg width="171" height="171" viewBox="0 0 171 171" fill="none" xmlns="http://www.w3.org/2000/svg">
<path d="M168.43 3H3V168.43H168.43V3Z" stroke="#02B0F4" stroke-width="5" stroke-miterlimit="10"/>
<path d="M127.25 59.63C127.04 58.76 126.72 58.5 126.2 58.24C125.07 57.68 123.01 58.17 123.01 58.17C123.01 58.17 50.08 76.86 45.78 79.29C44.85 79.81 44.53 80.14 44.35 80.54C43.46 82.47 45.55 83.5599 45.55 83.5599L63.17 91.1999C63.17 91.1999 63.84 91.36 64.1 91.23C68.48 89.01 108.19 68.88 110.43 68.29C110.78 68.22 111.02 68.3599 110.93 68.5899C109.78 71.5399 74.5 97.4 74.5 97.4C74.5 97.4 74.36 97.54 74.27 97.72L74.23 97.6899L70.83 115.56C70.83 115.56 69.6 121.02 75.64 116.01C79.91 112.48 83.98 109.57 86.02 108.17C91.86 113.08 98.14 118.49 100.81 121.26C102.15 122.65 103.35 122.97 104.36 123.03C107.13 123.19 108.18 120.23 108.18 120.23C108.18 120.23 125.92 69.7099 127 62.8199C127.11 62.1499 127.2 61.72 127.25 61.25C127.32 60.6 127.32 59.95 127.25 59.63Z" fill="#02B0F4"/>
</svg>
