<svg width="171" height="171" viewBox="0 0 171 171" fill="none" xmlns="http://www.w3.org/2000/svg">
<path d="M168.43 3H3V168.43H168.43V3Z" stroke="#0078FF" stroke-width="5" stroke-miterlimit="10"/>
<path d="M125.27 103.68C119.81 97.96 114.06 94.73 110.21 92.96C113.82 90.89 120.08 86.66 125.43 79.14C130.83 71.53 132.75 64.14 133.51 60.04H116.27C115.27 63.42 113.26 68.56 109.13 73.71C102.88 81.49 95.28 84.88 91.55 86.24L91.48 60.02L75.39 60.06L75.52 106.26C71.21 104.77 66.68 102.32 62.77 98.35C57.78 93.27 55.71 87.51 53.88 82.42C51.33 75.34 50.14 67.87 50.32 60.23L34.24 59.84C34 69.48 35.52 78.91 38.74 87.87C40.89 93.85 43.83 102.03 51.29 109.63C61.42 119.95 73.96 123.28 82.69 124.26L91.65 125.26L91.59 102.3C94.58 102.58 100.04 103.54 105.55 107.25C114.59 113.35 117.31 122.53 117.97 125.11H137.23C136.02 120.58 133.02 111.79 125.27 103.68Z" fill="#0078FF"/>
</svg>
