<svg width="171" height="171" viewBox="0 0 171 171" fill="none" xmlns="http://www.w3.org/2000/svg">
<path d="M168.43 3H3V168.43H168.43V3Z" stroke="#01E311" stroke-width="5" stroke-miterlimit="10"/>
<path d="M129.38 59.55C121.82 46.17 107.54 37.49 91.98 36.99C76.2 36.49 59.97 44.45 51.67 59.66C44.11 73.53 44.71 90.56 53.19 104.12C52.06 110.3 50.93 116.47 49.8 122.65C56.41 121.57 63.01 120.5 69.62 119.42C72 120.71 87.84 128.98 106.33 122.14C108.65 121.28 126.52 114.33 132.94 94.68C138.79 76.8 130.72 61.93 129.37 59.54L129.38 59.55ZM126.47 92.05C121.28 108.66 106.32 114.74 104.35 115.5C87.06 122.17 72.12 113.05 70.53 112.04C66.5 112.9 62.47 113.76 58.44 114.62L60.34 102.34C52.11 90.92 51.0399 75.81 57.5699 63.45C64.4399 50.47 78.0499 43.65 91.2899 43.89C104.41 44.13 116.55 51.29 123.07 62.48C124.23 64.48 131.2 76.92 126.47 92.06V92.05Z" fill="#01E311"/>
<path d="M79.6 60.45C80.09 60.45 80.5199 60.76 80.6799 61.22C81.4999 63.68 84.74 71.23 84.48 72.04C84.18 73.02 80.4499 75.87 80.2999 77.26C80.1499 78.65 82.92 82.52 85.83 85.55C89.78 89.68 96.02 92.39 96.53 92.61C97.04 92.83 100.92 87.11 101.72 86.75C102.52 86.39 112.83 91.95 112.83 92.9C112.83 93.85 112.02 97.11 110.13 99.7C108.81 101.5 105.89 102.29 103.72 102.58C103.67 102.58 103.62 102.58 103.57 102.58C101.93 102.31 90.62 101.03 80.89 91.44C72.98 83.64 70.6 74.76 69.86 71.22C69.85 71.17 69.84 71.12 69.84 71.07C69.8 69.88 69.84 66.37 72.34 63.29C73.31 62.1 75 60.97 75.61 60.58C75.76 60.48 75.93 60.44 76.11 60.44H79.6V60.45Z" fill="#01E311"/>
</svg>
